# 3ds Max Wavefront OBJ Exporter v0.97b - (c)2007 guruware
# File Created: 25.03.2017 21:31:20

mtllib Avatar2.mtl

#
# object Box008
#

v  140.7731 53.8518 57.8726
v  131.2016 57.5720 40.6177
v  149.7527 62.5569 33.4642
v  162.3400 58.1860 45.5432
v  119.2063 58.1865 70.2021
v  115.5125 62.5894 53.0616
v  148.7334 58.1763 72.3368
v  163.1057 63.1936 57.6120
v  128.8655 63.1619 77.2093
v  144.1516 113.8098 63.7236
v  165.3209 107.6772 51.0882
v  149.3710 102.6384 33.2501
v  130.8904 107.6931 40.7041
v  122.9820 107.6775 76.3588
v  115.4854 102.5974 53.4413
v  156.4532 107.6917 85.0813
v  170.9264 102.5957 70.7303
v  137.0408 102.6375 90.9216
v  132.1451 82.9329 42.6055
v  151.8504 82.8516 34.5143
v  148.1031 65.4941 36.4662
v  132.3403 61.2419 42.5868
v  115.3244 82.9082 55.7807
v  119.0316 65.5344 53.3533
v  132.0272 104.0198 42.6780
v  148.0996 99.6960 36.8315
v  118.9887 99.6650 53.6901
v  118.1391 82.9246 78.8311
v  111.0924 82.8982 55.7256
v  136.9404 82.8875 90.4785
v  159.0196 82.9312 89.7988
v  170.5890 82.8970 70.8368
v  170.1629 82.9243 48.6148
v  153.9066 82.8884 30.7921
v  158.6591 24.0349 93.8643
v  156.5591 9.8584 98.4423
v  157.4424 8.9756 99.7029
v  159.5877 22.7092 89.3220
v  148.3883 21.2266 90.1606
v  142.0967 6.3662 99.9791
v  143.5741 8.1033 104.7907
v  144.2187 22.7632 93.8735
v  150.2283 5.8428 97.0931
v  152.0051 21.9956 88.3762
v  159.0319 45.9482 71.1358
v  159.0239 42.5962 72.1513
v  152.7493 40.2373 71.4131
v  149.5183 48.1572 72.4255
v  157.2402 42.7556 84.5492
v  157.0067 51.1023 70.7715
v  150.4439 56.5889 71.8405
v  151.3870 43.6914 87.0884
v  154.7632 8.9985 105.8051
v  148.3018 8.6526 110.0801
v  148.1472 3.1794 106.4015
v  156.8616 24.3047 98.2202
v  159.5295 35.9280 85.4193
v  149.2569 34.0383 80.5011
v  143.3323 36.6973 85.6008
v  153.7393 35.3125 77.7797
v  160.6221 31.2798 79.3082
v  152.4746 24.6458 99.1753
v  143.6485 38.5439 75.7223
v  140.3530 46.6411 76.0312
v  147.8968 25.5112 98.0476
v  144.7285 8.4429 106.8228
v  146.1222 43.0103 86.5665
v  145.0788 56.0942 73.2337
v  126.4885 10.0295 56.7034
v  151.4884 5.0051 56.7034
v  151.4884 26.7717 78.1959
v  130.0518 21.6541 76.2259
v  151.4884 55.5967 71.8514
v  151.4884 55.2327 56.7034
v  136.3405 54.7615 56.7034
v  139.4385 52.1128 68.7534
v  151.2105 35.9431 75.8792
v  134.7680 38.0952 71.6778
v  172.0921 12.3333 56.7034
v  167.3926 37.7000 56.7034
v  163.9925 36.3738 71.6778
v  169.1895 18.5679 71.7117
v  169.1895 18.5679 41.6952
v  151.4884 26.7717 35.2109
v  151.2105 35.9431 37.5277
v  163.9925 36.3738 41.7291
v  128.4626 39.5706 56.7034
v  134.7680 38.0952 41.7291
v  130.0518 21.6396 37.1809
v  160.0182 56.9563 44.6534
v  151.4884 55.5967 41.5555
v  163.2770 58.1514 56.7034
v  160.0182 56.9563 68.7534
v  139.4385 52.1128 44.6534
v  158.6591 21.9287 18.8841
v  159.5878 20.6030 23.4263
v  157.4424 6.8694 13.0455
v  156.5591 7.7522 14.3061
v  148.3883 19.1204 22.5878
v  144.2187 20.6570 18.8748
v  143.5741 5.9971 7.9576
v  142.0967 4.2600 12.7692
v  152.0051 19.8894 24.3721
v  150.2283 3.7366 15.6552
v  159.0319 43.8420 41.6125
v  149.5183 46.0508 40.3229
v  152.7493 38.1311 41.3353
v  159.0239 40.4900 40.5970
v  157.2402 40.6494 28.1992
v  151.3870 41.5852 25.6599
v  150.4439 54.4827 40.9078
v  157.0067 48.9961 41.9768
v  154.7632 6.8923 6.9432
v  148.1472 1.0732 6.3468
v  148.3018 6.5464 2.6683
v  159.5295 33.8218 27.3291
v  156.8616 22.1985 14.5281
v  149.2569 31.9321 32.2472
v  143.3323 34.5911 27.1476
v  160.6221 29.1736 33.4401
v  153.7393 33.2063 34.9686
v  152.4747 22.5396 13.5731
v  143.6485 36.4377 37.0260
v  140.3530 44.5349 36.7171
v  147.8968 23.4050 14.7008
v  144.7285 6.3367 5.9255
v  146.1222 40.9041 26.1819
v  145.0788 53.9880 39.5147
v  89.1954 2.9636 34.3499
v  104.1971 1.3999 37.2575
v  104.3078 5.6843 37.8448
v  90.0483 7.1729 39.2610
v  104.6099 14.1680 29.4079
v  105.5269 11.1982 26.7538
v  94.6750 21.5796 15.4141
v  95.5060 27.7651 20.7614
v  152.2796 8.3867 53.0589
v  159.5031 20.4949 39.7640
v  142.7523 24.5967 33.8353
v  127.1110 12.7737 45.3873
v  132.3194 0.3669 35.2732
v  133.8352 6.6064 26.2520
v  154.9525 6.8892 32.8868
v  153.3911 1.2354 38.6753
v  96.5212 9.9675 14.9861
v  92.7660 -1.6282 31.3952
v  125.3990 3.0894 41.7082
v  148.7355 19.4812 25.4417
v  118.2374 15.3159 31.4507
v  117.4105 6.8120 38.4459
v  105.8647 0.6423 33.3387
v  105.0467 3.0864 26.2535
v  89.1954 3.0708 78.1918
v  90.0483 7.2800 73.2807
v  104.3079 5.7915 74.6969
v  104.1971 1.5071 75.2842
v  104.6099 14.2751 83.1339
v  95.5060 27.8723 91.7803
v  94.6751 21.6868 97.1276
v  105.5269 11.3054 85.7879
v  152.2796 8.4941 59.4828
v  127.1110 12.8809 67.1544
v  142.7523 24.7039 78.7065
v  159.5031 20.6021 72.7777
v  132.3194 0.4741 77.2685
v  153.3911 1.3425 73.8665
v  154.9525 6.9963 79.6550
v  133.8352 6.7136 86.2897
v  92.7660 -1.5210 81.1465
v  96.5213 10.0747 97.5556
v  125.3990 3.1968 70.8335
v  118.2375 15.4231 81.0911
v  148.7355 19.5884 87.1000
v  117.4105 6.9192 74.0959
v  105.8648 0.7495 79.2030
v  105.0467 3.1936 86.2882
# 176 vertices

vn 0.0126 -0.9991 0.0394
vn -0.0794 -0.9765 -0.2005
vn 0.0597 -0.9470 -0.3158
vn 0.2181 -0.9730 -0.0761
vn -0.1242 -0.9737 0.1910
vn -0.4039 -0.9033 -0.1450
vn 0.1074 -0.9543 0.2790
vn 0.5635 -0.7751 0.2859
vn 0.0129 -0.8978 0.4402
vn 0.0030 0.9999 0.0113
vn 0.2255 0.9660 -0.1267
vn 0.1019 0.9395 -0.3270
vn -0.1103 0.9720 -0.2076
vn -0.2012 0.9676 0.1525
vn -0.3738 0.9238 -0.0825
vn 0.1169 0.9660 0.2308
vn 0.4260 0.8979 0.1107
vn -0.0935 0.9293 0.3573
vn -0.5049 0.0004 -0.8632
vn -0.3695 0.0008 -0.9292
vn -0.3705 -0.0121 -0.9287
vn -0.4976 -0.0083 -0.8674
vn -0.6202 0.0114 -0.7844
vn -0.6340 -0.0273 -0.7728
vn -0.5097 0.0114 -0.8602
vn -0.3278 0.0567 -0.9430
vn -0.6307 0.0180 -0.7758
vn -0.7999 -0.0510 0.5980
vn -0.9587 -0.0088 0.2844
vn -0.9579 -0.1697 0.2315
vn -0.8555 -0.2154 0.4708
vn -0.5154 -0.1356 0.8462
vn -0.3978 -0.3944 0.8284
vn -0.8313 0.2205 0.5103
vn -0.9374 0.2385 0.2538
vn -0.6102 0.1034 0.7855
vn 0.4682 -0.2286 0.8535
vn 0.0859 -0.2801 0.9561
vn 0.0412 -0.5806 0.8131
vn 0.3920 -0.6264 0.6738
vn 0.7991 -0.3350 0.4992
vn 0.6766 -0.5699 0.4662
vn 0.4665 0.1563 0.8706
vn 0.2935 -0.0229 0.9557
vn 0.7918 0.1042 0.6018
vn 0.9369 -0.0239 -0.3488
vn 0.9932 -0.0730 -0.0906
vn 0.9459 -0.3225 0.0348
vn 0.8631 -0.2552 -0.4358
vn 0.7218 0.0352 -0.6912
vn 0.6323 -0.2266 -0.7409
vn 0.8846 0.1608 -0.4378
vn 0.9602 -0.0180 -0.2787
vn 0.7080 0.2250 -0.6694
vn -0.4263 0.5226 -0.7384
vn -0.4128 0.5411 -0.7327
vn -0.0062 0.1326 -0.9912
vn -0.0055 -0.1179 -0.9930
vn -0.4249 -0.5424 -0.7248
vn -0.4251 -0.5770 -0.6974
vn -0.8785 -0.1393 -0.4571
vn -0.8484 0.1144 -0.5169
vn 0.9463 0.0995 0.3075
vn 0.2180 0.3065 0.9266
vn -0.3680 0.3618 0.8565
vn 0.9826 0.0351 0.1825
vn -0.7406 -0.3562 -0.5697
vn -0.8869 0.4485 0.1104
vn -0.9012 0.3566 0.2464
vn -0.9935 -0.0717 -0.0879
vn 0.4003 -0.5006 -0.7676
vn 0.0125 -0.4759 -0.8794
vn -0.0467 -0.5789 -0.8141
vn 0.0965 -0.6400 -0.7623
vn -0.0320 -0.1087 -0.9936
vn 0.2165 -0.2835 -0.9342
vn -0.2141 -0.0316 -0.9763
vn -0.2879 -0.0389 -0.9569
vn 0.4254 0.6432 0.6366
vn 0.6260 0.6716 0.3963
vn 0.3266 0.7542 0.5697
vn 0.1261 0.6493 0.7500
vn 0.6480 -0.7080 0.2807
vn -0.0052 -0.5577 0.8300
vn -0.0231 -0.9173 0.3975
vn 0.0067 -0.1700 0.9854
vn 0.9038 0.3348 0.2664
vn 0.9320 0.0755 0.3546
vn 0.9240 0.2310 0.3048
vn -0.6453 -0.6390 -0.4187
vn -0.9799 -0.1494 0.1323
vn -0.2268 -0.7431 -0.6296
vn -0.2004 -0.7085 -0.6767
vn 0.4576 0.4028 0.7927
vn 0.2398 0.4772 0.8455
vn 0.0943 0.5165 0.8511
vn -0.1206 0.5194 0.8460
vn 0.9475 0.2813 0.1520
vn 0.9050 0.3704 0.2091
vn -0.8200 -0.5572 -0.1304
vn -0.8591 0.2763 0.4309
vn 0.0035 -0.6971 -0.7170
vn 0.2797 -0.4847 -0.8288
vn 0.9718 -0.0167 0.2351
vn -0.8067 0.3203 0.4966
vn -0.8339 0.3668 0.4124
vn -0.1777 -0.0982 -0.9792
vn -0.2580 -0.0739 -0.9633
vn 0.2753 -0.9490 -0.1535
vn -0.4815 0.5228 0.7035
vn 0.9895 0.1105 0.0928
vn -0.7800 0.3183 0.5388
vn 0.9994 0.0189 -0.0286
vn -0.6763 0.4986 0.5422
vn -0.3275 -0.4205 -0.8461
vn -0.3082 -0.4698 -0.8272
vn -0.3806 -0.0834 -0.9210
vn -0.3367 -0.0939 -0.9369
vn 0.0563 0.7565 0.6516
vn -0.1564 0.6202 0.7686
vn -0.6653 -0.4781 0.5734
vn -0.7236 -0.5258 0.4471
vn -0.2280 -0.6784 -0.6984
vn -0.1406 0.5466 0.8255
vn -0.6167 0.4475 0.6477
vn -0.1334 -0.7941 -0.5929
vn -0.2334 -0.1668 -0.9580
vn -0.4593 -0.8883 -0.0081
vn -0.1184 -0.9907 0.0670
vn 0.0541 -0.9967 0.0597
vn 0.0164 -0.7975 0.6030
vn 0.1611 -0.8606 0.4831
vn -0.1645 0.9853 0.0451
vn -0.1523 0.9878 -0.0312
vn -0.0989 0.9935 -0.0566
vn -0.3329 0.8994 0.2833
vn -0.1792 0.2882 0.9406
vn 0.1614 0.2463 0.9557
vn 0.0742 0.2161 0.9735
vn -0.2225 0.2754 0.9352
vn 0.9721 0.2348 -0.0000
vn 0.9801 0.1985 -0.0000
vn 0.9551 0.2143 0.2047
vn 0.9576 0.2796 0.0690
vn 0.3577 0.1490 -0.9219
vn 0.1613 0.2463 -0.9557
vn 0.0742 0.2161 -0.9736
vn 0.3062 0.1353 -0.9423
vn -0.9919 0.1233 -0.0313
vn -0.9555 0.2919 -0.0433
vn -0.9177 0.2630 -0.2977
vn -0.9605 0.2780 -0.0100
vn -0.0169 -0.7701 -0.6377
vn 0.0294 -0.7023 -0.7113
vn -0.1966 0.9805 0.0011
vn -0.2212 0.9749 0.0234
vn -0.2403 0.9707 0.0000
vn 0.9576 0.2796 -0.0690
vn 0.9551 0.2143 -0.2047
vn -0.9592 0.1651 0.2296
vn -0.8477 0.3572 0.3921
vn 0.2202 -0.9688 0.1141
vn -0.3015 -0.8998 0.3155
vn -0.1966 0.9805 -0.0011
vn 0.3577 0.1490 0.9219
vn 0.3062 0.1353 0.9423
vn -0.1793 0.2881 -0.9407
vn -0.2225 0.2753 -0.9353
vn 0.0885 -0.7887 -0.6084
vn -0.1533 0.9830 -0.1012
vn 0.0664 0.2204 0.9732
vn -0.3168 0.2937 0.9019
vn 0.9803 0.1973 -0.0000
vn 0.9451 0.2003 0.2584
vn 0.0664 0.2204 -0.9732
vn 0.3079 0.1918 -0.9319
vn -0.8974 0.4409 -0.0196
vn -0.8824 0.3578 -0.3055
vn 0.9451 0.2003 -0.2584
vn -0.8454 0.4024 0.3512
vn 0.3079 0.1918 0.9319
vn -0.3168 0.2937 -0.9019
vn 0.9463 0.0995 -0.3075
vn 0.9826 0.0351 -0.1825
vn -0.3680 0.3618 -0.8565
vn 0.2180 0.3065 -0.9266
vn -0.7406 -0.3562 0.5697
vn -0.9935 -0.0717 0.0879
vn -0.9012 0.3566 -0.2464
vn -0.8869 0.4485 -0.1104
vn 0.4003 -0.5006 0.7676
vn 0.0965 -0.6400 0.7623
vn -0.0467 -0.5789 0.8141
vn 0.0125 -0.4759 0.8794
vn -0.0320 -0.1087 0.9936
vn -0.2879 -0.0389 0.9569
vn -0.2141 -0.0316 0.9763
vn 0.2165 -0.2835 0.9342
vn 0.4254 0.6432 -0.6366
vn 0.1261 0.6493 -0.7500
vn 0.3266 0.7542 -0.5697
vn 0.6260 0.6716 -0.3963
vn 0.6480 -0.7080 -0.2807
vn 0.0067 -0.1700 -0.9854
vn -0.0231 -0.9173 -0.3975
vn -0.0052 -0.5577 -0.8300
vn 0.9038 0.3348 -0.2664
vn 0.9240 0.2310 -0.3048
vn 0.9320 0.0755 -0.3546
vn -0.6453 -0.6390 0.4187
vn -0.9799 -0.1494 -0.1323
vn -0.2004 -0.7085 0.6767
vn -0.2268 -0.7431 0.6296
vn 0.4576 0.4028 -0.7927
vn -0.1206 0.5194 -0.8460
vn 0.0943 0.5165 -0.8511
vn 0.2398 0.4772 -0.8455
vn 0.9475 0.2813 -0.1520
vn 0.9050 0.3704 -0.2091
vn -0.8200 -0.5572 0.1304
vn -0.8591 0.2763 -0.4309
vn 0.2797 -0.4847 0.8288
vn 0.0035 -0.6971 0.7170
vn 0.9718 -0.0167 -0.2351
vn -0.8067 0.3203 -0.4966
vn -0.8339 0.3668 -0.4124
vn -0.1777 -0.0982 0.9792
vn -0.2580 -0.0739 0.9633
vn 0.2753 -0.9490 0.1535
vn -0.4815 0.5228 -0.7035
vn 0.9895 0.1105 -0.0928
vn -0.7800 0.3183 -0.5388
vn 0.9994 0.0189 0.0286
vn -0.6763 0.4986 -0.5422
vn -0.3275 -0.4205 0.8461
vn -0.3082 -0.4698 0.8272
vn -0.3367 -0.0939 0.9369
vn -0.3806 -0.0834 0.9210
vn -0.1564 0.6202 -0.7686
vn 0.0563 0.7565 -0.6516
vn -0.6653 -0.4781 -0.5734
vn -0.7236 -0.5258 -0.4471
vn -0.2280 -0.6784 0.6984
vn -0.6167 0.4475 -0.6477
vn -0.1406 0.5466 -0.8255
vn -0.1334 -0.7941 0.5929
vn -0.2334 -0.1668 0.9580
vn -0.4593 -0.8883 0.0081
vn -0.0533 -0.6785 0.7327
vn -0.1386 -0.6888 0.7116
vn -0.0997 -0.2159 0.9713
vn -0.0144 -0.7580 0.6521
vn 0.5386 0.6200 -0.5706
vn 0.4496 0.3566 -0.8189
vn 0.8351 0.2366 -0.4966
vn 0.8466 0.2784 -0.4536
vn 0.1780 0.6589 0.7309
vn 0.0086 0.6915 0.7224
vn 0.0572 0.6769 0.7339
vn 0.2118 0.6215 0.7543
vn 0.5378 0.4494 0.7133
vn 0.5885 0.4518 0.6705
vn -0.0627 0.7475 0.6613
vn -0.0725 0.7445 0.6637
vn 0.1001 -0.8161 -0.5691
vn 0.1169 -0.8379 -0.5332
vn 0.1517 -0.7583 -0.6341
vn 0.1386 -0.7269 -0.6726
vn -0.9677 -0.0292 -0.2504
vn -0.9786 0.0864 -0.1870
vn -0.9017 -0.1635 -0.4003
vn -0.8237 -0.3569 -0.4407
vn -0.0130 -0.9019 0.4318
vn -0.0888 -0.8053 0.5862
vn -0.2142 -0.6491 0.7299
vn -0.0182 -0.9311 0.3643
vn -0.0038 0.8527 -0.5224
vn 0.7034 0.4379 -0.5598
vn 0.3386 0.3921 -0.8553
vn -0.1734 0.9050 -0.3886
vn -0.2662 0.7148 0.6467
vn -0.5628 0.8227 0.0799
vn -0.4730 0.7801 0.4096
vn -0.2251 0.6456 0.7297
vn 0.1469 -0.9183 -0.3677
vn 0.1304 -0.8972 -0.4219
vn -0.0600 -0.9676 0.2454
vn 0.1313 -0.8668 -0.4811
vn 0.0801 -0.8226 -0.5630
vn -0.0270 -0.5557 0.8310
vn 0.3890 0.0655 -0.9189
vn 0.8306 0.1518 -0.5358
vn 0.9452 -0.3063 0.1129
vn 0.9531 -0.3004 -0.0363
vn -0.9710 0.2347 -0.0466
vn -0.9783 0.1941 -0.0725
vn -0.3689 -0.2724 0.8887
vn -0.2775 0.1513 0.9487
vn 0.5974 -0.1686 -0.7840
vn 0.0497 -0.1100 -0.9927
vn -0.0533 -0.6785 -0.7327
vn -0.0144 -0.7580 -0.6521
vn -0.0997 -0.2159 -0.9713
vn -0.1386 -0.6887 -0.7116
vn 0.5386 0.6200 0.5706
vn 0.8466 0.2784 0.4536
vn 0.8351 0.2366 0.4966
vn 0.4496 0.3566 0.8189
vn 0.1780 0.6589 -0.7309
vn 0.2118 0.6215 -0.7543
vn 0.0572 0.6769 -0.7339
vn 0.0086 0.6915 -0.7224
vn 0.5378 0.4494 -0.7133
vn -0.0725 0.7445 -0.6637
vn -0.0627 0.7475 -0.6613
vn 0.5885 0.4518 -0.6705
vn 0.1001 -0.8161 0.5691
vn 0.1386 -0.7269 0.6726
vn 0.1517 -0.7583 0.6341
vn 0.1169 -0.8379 0.5332
vn -0.9677 -0.0292 0.2504
vn -0.8237 -0.3569 0.4407
vn -0.9017 -0.1635 0.4003
vn -0.9786 0.0864 0.1870
vn -0.0130 -0.9019 -0.4318
vn -0.0182 -0.9311 -0.3643
vn -0.2142 -0.6491 -0.7300
vn -0.0888 -0.8053 -0.5862
vn -0.0038 0.8527 0.5224
vn -0.1734 0.9050 0.3886
vn 0.3386 0.3921 0.8553
vn 0.7034 0.4379 0.5598
vn -0.2662 0.7148 -0.6467
vn -0.2251 0.6456 -0.7297
vn -0.4730 0.7801 -0.4096
vn -0.5628 0.8227 -0.0799
vn 0.1469 -0.9183 0.3677
vn 0.1304 -0.8972 0.4219
vn -0.0600 -0.9676 -0.2454
vn 0.1313 -0.8668 0.4811
vn 0.0801 -0.8226 0.5630
vn -0.0270 -0.5557 -0.8310
vn 0.3890 0.0655 0.9189
vn 0.8306 0.1518 0.5358
vn 0.9452 -0.3063 -0.1129
vn 0.9531 -0.3004 0.0363
vn -0.9710 0.2347 0.0466
vn -0.9783 0.1941 0.0725
vn -0.3689 -0.2724 -0.8887
vn -0.2775 0.1513 -0.9487
vn 0.5974 -0.1686 0.7840
vn 0.0497 -0.1100 0.9927
# 352 vertex normals

vt 0.5000 0.5000 0.0000
vt 0.5000 0.0000 0.0000
vt 1.0000 0.0000 0.0000
vt 1.0000 0.5000 0.0000
vt 0.0000 0.5000 0.0000
vt 0.0000 0.0000 0.0000
vt 0.5000 1.0000 0.0000
vt 1.0000 1.0000 0.0000
vt 0.0000 1.0000 0.0000
vt 0.2500 0.0000 0.0000
vt 0.2500 0.5000 0.0000
vt 0.2500 1.0000 0.0000
vt 0.7500 0.0000 0.0000
vt 0.7500 0.5000 0.0000
vt 0.7500 1.0000 0.0000
# 15 texture coords

g Box008
usemtl 03___Default
s 2
f 1/1/1 2/2/2 3/3/3 4/4/4 
f 5/5/5 6/6/6 2/2/2 1/1/1 
f 7/7/7 1/1/1 4/4/4 8/8/8 
f 9/9/9 5/5/5 1/1/1 7/7/7 
s 4
f 10/1/10 11/5/11 12/6/12 13/2/13 
f 14/4/14 10/1/10 13/2/13 15/3/15 
f 16/7/16 17/9/17 11/5/11 10/1/10 
f 18/8/18 16/7/16 10/1/10 14/4/14 
usemtl 07___Default
s 8
f 19/1/19 20/5/20 21/6/21 22/2/22 
f 23/4/23 19/1/19 22/2/22 24/3/24 
f 25/7/25 26/9/26 20/5/20 19/1/19 
f 27/8/27 25/7/25 19/1/19 23/4/23 
usemtl 03___Default
s 16
f 28/1/28 29/5/29 6/6/30 5/2/31 
f 30/4/32 28/1/28 5/2/31 9/3/33 
f 14/7/34 15/9/35 29/5/29 28/1/28 
f 18/8/36 14/7/34 28/1/28 30/4/32 
s 32
f 31/1/37 30/5/38 9/6/39 7/2/40 
f 32/4/41 31/1/37 7/2/40 8/3/42 
f 16/7/43 18/9/44 30/5/38 31/1/37 
f 17/8/45 16/7/43 31/1/37 32/4/41 
s 64
f 33/1/46 32/5/47 8/6/48 4/2/49 
f 34/4/50 33/1/46 4/2/49 3/3/51 
f 11/7/52 17/9/53 32/5/47 33/1/46 
f 12/8/54 11/7/52 33/1/46 34/4/50 
s off
f 3/6/55 2/2/55 22/2/55 21/6/55 
f 2/2/56 6/3/56 24/3/56 22/2/56 
f 6/3/57 29/4/57 23/4/57 24/3/57 
f 29/4/58 15/8/58 27/8/58 23/4/58 
f 15/8/59 13/7/59 25/7/59 27/8/59 
f 13/7/60 12/9/60 26/9/60 25/7/60 
f 12/9/61 34/5/61 20/5/61 26/9/61 
f 34/5/62 3/6/62 21/6/62 20/5/62 
s 2
f 35/1/63 36/4/64 37/3/65 38/2/66 
s 4
f 39/2/67 40/6/68 41/5/69 42/1/70 
s 8
f 37/6/71 43/5/72 44/1/73 38/2/74 
s 16
f 45/2/75 46/6/76 47/5/77 48/1/78 
s 32
f 49/10/79 50/6/80 51/5/81 52/11/82 
s 64
f 53/6/83 54/5/84 55/1/85 36/2/86 
s 2
f 49/12/87 56/7/88 35/1/63 57/11/89 
s 4
f 58/13/90 39/2/67 42/1/70 59/14/91 
s 8
f 38/2/74 44/1/73 60/14/92 61/13/93 
s 32
f 53/3/94 56/2/95 62/1/96 54/4/97 
f 56/2/95 49/10/79 52/11/82 62/1/96 
s 2
f 45/5/98 50/9/99 49/12/87 57/11/89 
s 4
f 63/3/100 58/13/90 59/14/91 64/4/101 
s 8
f 61/13/93 60/14/92 47/4/102 46/3/103 
s 2
f 36/4/64 35/1/63 56/7/88 53/8/104 
s 4
f 65/7/105 42/1/70 41/5/69 66/9/106 
s 16
f 50/3/107 45/2/75 48/1/78 51/4/108 
s 64
f 43/4/109 37/3/110 36/2/86 55/1/85 
s 2
f 57/11/89 35/1/63 38/2/66 61/10/111 
s 4
f 67/15/112 59/14/91 42/1/70 65/7/105 
s 2
f 57/11/89 61/10/111 46/6/113 45/5/98 
s 4
f 64/4/101 59/14/91 67/15/112 68/8/114 
s 8
f 40/9/115 39/7/116 44/1/73 43/5/72 
s 16
f 48/1/78 47/5/77 63/9/117 64/7/118 
s 32
f 52/11/82 51/5/81 68/9/119 67/12/120 
s 64
f 66/9/121 41/7/122 55/1/85 54/5/84 
s 8
f 44/1/73 39/7/116 58/15/123 60/14/92 
s 32
f 54/4/97 62/1/96 65/7/124 66/8/125 
f 65/7/124 62/1/96 52/11/82 67/12/120 
s 8
f 63/8/126 47/4/102 60/14/92 58/15/123 
s 16
f 51/4/108 48/1/78 64/7/118 68/8/127 
s 64
f 40/8/128 43/4/109 55/1/85 41/7/122 
s 2
f 69/4/129 70/1/130 71/2/131 72/3/132 
s 4
f 73/2/133 74/1/134 75/5/135 76/6/136 
s 8
f 72/6/137 71/2/138 77/1/139 78/5/140 
s 16
f 79/2/141 80/1/142 81/5/143 82/6/144 
s 32
f 83/6/145 84/2/146 85/1/147 86/5/148 
s 64
f 69/2/149 87/1/150 88/5/151 89/6/152 
s 2
f 89/8/153 84/7/154 70/1/130 69/4/129 
s 4
f 90/8/155 91/7/156 74/1/134 92/4/157 
s 16
f 79/2/141 83/3/158 86/4/159 80/1/142 
s 64
f 72/3/160 78/4/161 87/1/150 69/2/149 
s 2
f 79/5/162 82/6/163 71/2/131 70/1/130 
s 4
f 93/3/164 92/4/157 74/1/134 73/2/133 
s 8
f 82/3/165 81/4/166 77/1/139 71/2/138 
s 32
f 89/3/167 88/4/168 85/1/147 84/2/146 
s 2
f 83/9/169 79/5/162 70/1/130 84/7/154 
s 4
f 94/9/170 75/5/135 74/1/134 91/7/156 
s 8
f 73/7/171 76/9/172 78/5/140 77/1/139 
s 16
f 80/1/142 92/7/173 93/9/174 81/5/143 
s 32
f 91/7/175 90/9/176 86/5/148 85/1/147 
s 64
f 75/7/177 94/9/178 88/5/151 87/1/150 
s 16
f 90/8/179 92/7/173 80/1/142 86/4/159 
s 64
f 76/8/180 75/7/177 87/1/150 78/4/161 
s 8
f 81/4/166 93/8/181 73/7/171 77/1/139 
s 32
f 88/4/168 94/8/182 91/7/175 85/1/147 
s 2
f 95/1/183 96/2/184 97/3/185 98/4/186 
s 4
f 99/2/187 100/1/188 101/5/189 102/6/190 
s 8
f 97/6/191 96/2/192 103/1/193 104/5/194 
s 16
f 105/2/195 106/1/196 107/5/197 108/6/198 
s 32
f 109/10/199 110/11/200 111/5/201 112/6/202 
s 64
f 113/6/203 98/2/204 114/1/205 115/5/206 
s 2
f 109/12/207 116/11/208 95/1/183 117/7/209 
s 4
f 118/13/210 119/14/211 100/1/188 99/2/187 
s 8
f 96/2/192 120/13/212 121/14/213 103/1/193 
s 32
f 113/3/214 115/4/215 122/1/216 117/2/217 
f 117/2/217 122/1/216 110/11/200 109/10/199 
s 2
f 105/5/218 116/11/208 109/12/207 112/9/219 
s 4
f 123/3/220 124/4/221 119/14/211 118/13/210 
s 8
f 120/13/212 108/3/222 107/4/223 121/14/213 
s 2
f 98/4/186 113/8/224 117/7/209 95/1/183 
s 4
f 125/7/225 126/9/226 101/5/189 100/1/188 
s 16
f 112/3/227 111/4/228 106/1/196 105/2/195 
s 64
f 104/4/229 114/1/205 98/2/204 97/3/230 
s 2
f 116/11/208 120/10/231 96/2/184 95/1/183 
s 4
f 127/15/232 125/7/225 100/1/188 119/14/211 
s 2
f 116/11/208 105/5/218 108/6/233 120/10/231 
s 4
f 124/4/221 128/8/234 127/15/232 119/14/211 
s 8
f 102/9/235 104/5/194 103/1/193 99/7/236 
s 16
f 106/1/196 124/7/237 123/9/238 107/5/197 
s 32
f 110/11/200 127/12/239 128/9/240 111/5/201 
usemtl wire_028028177
s 64
f 126/9/241 115/5/206 114/1/205 101/7/242 
usemtl 03___Default
s 8
f 103/1/193 121/14/213 118/15/243 99/7/236 
s 32
f 115/4/215 126/8/244 125/7/245 122/1/216 
f 125/7/245 127/12/239 110/11/200 122/1/216 
s 8
f 123/8/246 118/15/243 121/14/213 107/4/223 
s 16
f 111/4/228 128/8/247 124/7/237 106/1/196 
s 64
f 102/8/248 101/7/242 114/1/205 104/4/229 
s 2
f 129/4/249 130/14/250 131/13/251 132/3/252 
s 4
f 133/10/253 134/11/254 135/5/255 136/6/256 
s 8
f 132/6/257 131/10/258 133/12/259 136/9/260 
s 16
f 137/2/261 138/7/262 139/9/263 140/6/264 
s 32
f 141/2/265 142/7/266 143/9/267 144/6/268 
s 64
f 129/2/269 135/7/270 145/9/271 146/6/272 
s 2
f 144/9/273 137/5/274 147/1/275 141/7/276 
s 4
f 139/3/277 138/4/278 148/1/279 149/2/280 
s 8
f 150/2/281 140/3/282 139/8/283 149/7/284 
s 32
f 151/13/285 152/15/286 142/7/266 141/2/265 
s 2
f 141/7/276 147/1/275 130/14/250 151/15/287 
s 4
f 149/2/280 148/1/279 134/11/254 133/10/253 
s 8
f 131/10/258 150/2/281 149/7/284 133/12/259 
s 32
f 146/3/288 145/8/289 152/15/286 151/13/285 
s 2
f 129/4/249 146/8/290 151/15/287 130/14/250 
s 4
f 152/12/291 145/9/292 135/5/255 134/11/254 
s 16
f 144/3/293 143/8/294 138/7/262 137/2/261 
s 64
f 132/3/295 136/8/296 135/7/270 129/2/269 
s 2
f 140/6/297 150/2/298 147/1/275 137/5/274 
s 4
f 143/8/299 142/7/300 148/1/279 138/4/278 
s 2
f 150/2/298 131/13/251 130/14/250 147/1/275 
s 4
f 142/7/300 152/12/291 134/11/254 148/1/279 
s 2
f 153/4/301 154/3/302 155/13/303 156/14/304 
s 4
f 157/10/305 158/6/306 159/5/307 160/11/308 
s 8
f 154/6/309 158/9/310 157/12/311 155/10/312 
s 16
f 161/2/313 162/6/314 163/9/315 164/7/316 
s 32
f 165/2/317 166/6/318 167/9/319 168/7/320 
s 64
f 153/2/321 169/6/322 170/9/323 159/7/324 
s 2
f 166/9/325 165/7/326 171/1/327 161/5/328 
s 4
f 163/3/329 172/2/330 173/1/331 164/4/332 
s 8
f 174/2/333 172/7/334 163/8/335 162/3/336 
s 32
f 175/13/337 165/2/317 168/7/320 176/15/338 
s 2
f 165/7/326 175/15/339 156/14/304 171/1/327 
s 4
f 172/2/330 157/10/305 160/11/308 173/1/331 
s 8
f 155/10/312 157/12/311 172/7/334 174/2/333 
s 32
f 169/3/340 175/13/337 176/15/338 170/8/341 
s 2
f 153/4/301 156/14/304 175/15/339 169/8/342 
s 4
f 176/12/343 160/11/308 159/5/307 170/9/344 
s 16
f 166/3/345 161/2/313 164/7/316 167/8/346 
s 64
f 154/3/347 153/2/321 159/7/324 158/8/348 
s 2
f 162/6/349 161/5/328 171/1/327 174/2/350 
s 4
f 167/8/351 164/4/332 173/1/331 168/7/352 
s 2
f 174/2/350 171/1/327 156/14/304 155/13/303 
s 4
f 168/7/352 173/1/331 160/11/308 176/12/343 
# 164 polygons

